<?xml version="1.0" encoding="UTF-8" standalone="no"?>
<!DOCTYPE svg PUBLIC "-//W3C//DTD SVG 1.1//EN" "http://www.w3.org/Graphics/SVG/1.1/DTD/svg11.dtd">
<svg version="1.1" xmlns="http://www.w3.org/2000/svg" xmlns:xlink="http://www.w3.org/1999/xlink" preserveAspectRatio="xMidYMid meet" viewBox="0 0 640 640" width="640" height="640"><defs><path d="M35.87 114.23C32.24 118.02 30.22 123.07 30.22 128.31C30.22 167.23 30.22 272.62 30.22 310.74C30.22 318.56 33.06 326.11 38.21 331.99C45.25 340.02 58.92 355.6 66.1 363.78C70.75 369.08 77.46 372.12 84.51 372.12C97.13 372.12 126.41 372.12 139.66 372.12C144.74 372.12 149.6 370.01 153.08 366.3C155.01 364.23 159.84 359.07 167.57 350.81L233.07 350.81C242.66 359.02 248.65 364.16 251.04 366.21C257.22 371.5 265.09 374.42 273.22 374.43C332 374.53 498.12 374.81 557.5 374.91C563.83 374.92 570.07 373.48 575.76 370.7C577.1 370.04 574.11 371.51 575.85 370.65C579.96 368.64 582.68 364.61 583.02 360.06C583.23 357.2 583.55 352.76 583.82 349.1C583.82 349.1 584.07 342.45 584.07 342.45C584.07 330.51 584.07 304.24 584.07 293.85C584.07 286.65 581.84 279.62 577.7 273.73C575 269.89 568.26 260.31 557.48 244.98L557.48 165.95C567.39 159.98 573.58 156.24 576.06 154.75C581.03 151.75 584.07 146.37 584.07 140.57C584.07 123.95 584.07 83.78 584.07 67.24C584.07 61.02 581.41 55.09 576.78 50.94C574.07 48.52 574.04 48.49 571.53 46.25C566.18 41.46 559.25 38.82 552.07 38.82C491.05 38.82 338.52 38.82 94.46 38.82C78.75 38.82 68.94 38.82 65.01 38.82C59.58 38.82 55.17 43.18 55.1 48.61C55 57.82 54.82 74.16 54.72 82.99C54.63 90.49 51.7 97.68 46.51 103.11C43.25 106.51 39.61 110.32 35.87 114.23Z" id="a1aIpFmdBl"></path><path d="M157.29 371.16L173.29 355.16" id="d22eBaMJz5"></path><path d="M531.84 56.37C540.89 56.37 548.22 63.71 548.22 72.75C548.22 126.77 548.22 272.35 548.22 326.35C548.22 335.47 540.83 342.86 531.71 342.86C438.58 342.86 175.6 342.86 82.44 342.86C73.39 342.86 66.06 335.52 66.06 326.48C66.06 272.46 66.06 126.67 66.06 72.62C66.06 63.65 73.34 56.37 82.31 56.37C175.49 56.37 438.68 56.37 531.84 56.37Z" id="b1sXsD3Za"></path><path d="M167.51 371.16L183.51 355.16" id="aV6qYPKHj"></path><path d="M178.16 371.16L194.16 355.16" id="aknfBsRrA"></path><path d="M189.29 372.16L205.29 356.16" id="bwVibXjsO"></path><path d="M199.68 371.16L215.68 355.16" id="eAxnsWG9K"></path><path d="M210.99 371.16L226.99 355.16" id="brfPi6rDN"></path><path d="M222.68 371.16L236.68 357.16" id="bEH9J0Vz8"></path><path d="M563.22 172.97L582.48 161.09" id="a7BpXomV1x"></path><path d="M563.22 184.85L582.48 172.97" id="dJl7RQ89l"></path><path d="M563.22 194.73L582.48 182.86" id="e7hdYgkyDO"></path><path d="M563.22 206.61L582.48 194.73" id="c2V3ohRzTX"></path><path d="M563.22 218.49L582.48 206.61" id="a1nouVWXzY"></path><path d="M563.22 227.43L582.48 215.55" id="ba844Cqsf"></path><path d="M563.22 239.31L582.48 227.43" id="e7yZcvm3K"></path><path d="M565.26 248.97L583.15 237.48" id="a2LmTYNswB"></path><path d="M44.22 92.53C44.22 96.39 41.08 99.53 37.22 99.53C33.35 99.53 30.22 96.39 30.22 92.53C30.22 88.67 33.35 85.53 37.22 85.53C41.08 85.53 44.22 88.67 44.22 92.53Z" id="f1v8lwNhHG"></path><path d="M222.68 27.07C222.68 30.93 219.55 34.07 215.68 34.07C211.82 34.07 208.68 30.93 208.68 27.07C208.68 23.21 211.82 20.07 215.68 20.07C219.55 20.07 222.68 23.21 222.68 27.07Z" id="a8bhVz7CD"></path><path d="" id="f3R8cA7jlW"></path><path d="M210.99 27.57L71.6 27.57C62.22 27.57 56.35 27.57 54.01 27.57C46.01 27.57 39.52 34.06 39.52 42.06C39.52 46.33 39.52 57 39.52 74.08L36.52 97.57C29.6 105.42 25.28 110.33 23.55 112.29C20.36 115.91 18.6 120.57 18.6 125.4C18.6 166.3 18.6 278.71 18.6 318.91C18.6 326 21.18 332.85 25.86 338.18C29.77 342.64 39.56 353.8 55.22 371.66" id="c1hm2O8sri"></path><path d="" id="b11DFAWXb8"></path><path d="M63.22 371.16C63.22 375.02 60.08 378.16 56.22 378.16C52.35 378.16 49.22 375.02 49.22 371.16C49.22 367.3 52.35 364.16 56.22 364.16C60.08 364.16 63.22 367.3 63.22 371.16Z" id="b4gmkITL82"></path><path d="M506.32 27.07C506.32 30.93 503.18 34.07 499.32 34.07C495.46 34.07 492.32 30.93 492.32 27.07C492.32 23.21 495.46 20.07 499.32 20.07C503.18 20.07 506.32 23.21 506.32 27.07Z" id="b1c8UOBsb8"></path><path d="M596.05 198.54L596.54 70.16C596.54 70.16 596.54 70.16 596.54 70.16C596.6 46.39 577.33 27.1 553.56 27.13C550.22 27.14 541.87 27.15 528.51 27.17L499.62 27.21" id="a2YPKOxywq"></path><path d="M603.6 199.61C603.6 203.48 600.46 206.61 596.6 206.61C592.73 206.61 589.6 203.48 589.6 199.61C589.6 195.75 592.73 192.61 596.6 192.61C600.46 192.61 603.6 195.75 603.6 199.61Z" id="a16GxYMMis"></path><path d="" id="d2WUUWJMcH"></path><path d="" id="a4k2q4sSn"></path><path d="" id="aKVuCWzm4"></path><path d="M418.82 385.41L562.03 385.41C570.74 384.72 576.19 384.29 578.37 384.12C586.86 383.45 593.4 376.34 593.35 367.82C593.14 326.97 593.29 299.74 593.82 286.12" id="a1QrQwAaWN"></path><path d="M600.82 289.12C600.82 292.99 597.68 296.12 593.82 296.12C589.96 296.12 586.82 292.99 586.82 289.12C586.82 285.26 589.96 282.12 593.82 282.12C597.68 282.12 600.82 285.26 600.82 289.12Z" id="b17944451O"></path><path d="M425.82 385.16C425.82 389.02 422.68 392.16 418.82 392.16C414.96 392.16 411.82 389.02 411.82 385.16C411.82 381.3 414.96 378.16 418.82 378.16C422.68 378.16 425.82 381.3 425.82 385.16Z" id="a5qIrDOsS"></path><path d="" id="aD3kXrfIc"></path><path d="M0 -474.32L855.34 -474.32L855.34 -277.73L0 -277.73L0 -474.32Z" id="aU2Pk3gT"></path><path d="M741.79 -714.55C776.89 -714.55 805.34 -686.09 805.34 -650.99C805.34 -631.2 805.34 -635.39 805.34 -615.6C805.34 -580.5 776.89 -552.05 741.79 -552.05C601.09 -552.05 242.55 -552.05 101.85 -552.05C66.75 -552.05 38.3 -580.5 38.3 -615.6C38.3 -635.39 38.3 -631.2 38.3 -650.99C38.3 -686.09 66.75 -714.55 101.85 -714.55C242.55 -714.55 601.09 -714.55 741.79 -714.55Z" id="bCRzhdiPV"></path></defs><g><g><g><use xlink:href="#a1aIpFmdBl" opacity="1" fill="#020f26" fill-opacity="1"></use><g><use xlink:href="#a1aIpFmdBl" opacity="1" fill-opacity="0" stroke="#3fc1c3" stroke-width="2" stroke-opacity="1"></use></g></g><g><g><use xlink:href="#d22eBaMJz5" opacity="1" fill-opacity="0" stroke="#0b1334" stroke-width="4" stroke-opacity="1"></use></g></g><g><use xlink:href="#b1sXsD3Za" opacity="1" fill="#1c499b" fill-opacity="0.74"></use><g><use xlink:href="#b1sXsD3Za" opacity="1" fill-opacity="0" stroke="#3fc1c3" stroke-width="2" stroke-opacity="1"></use></g></g><g><g><use xlink:href="#aV6qYPKHj" opacity="1" fill-opacity="0" stroke="#0b1334" stroke-width="4" stroke-opacity="1"></use></g></g><g><g><use xlink:href="#aknfBsRrA" opacity="1" fill-opacity="0" stroke="#0b1334" stroke-width="4" stroke-opacity="1"></use></g></g><g><g><use xlink:href="#bwVibXjsO" opacity="1" fill-opacity="0" stroke="#0b1334" stroke-width="4" stroke-opacity="1"></use></g></g><g><g><use xlink:href="#eAxnsWG9K" opacity="1" fill-opacity="0" stroke="#0b1334" stroke-width="4" stroke-opacity="1"></use></g></g><g><g><use xlink:href="#brfPi6rDN" opacity="1" fill-opacity="0" stroke="#0b1334" stroke-width="4" stroke-opacity="1"></use></g></g><g><g><use xlink:href="#bEH9J0Vz8" opacity="1" fill-opacity="0" stroke="#0b1334" stroke-width="4" stroke-opacity="1"></use></g></g><g><g><use xlink:href="#a7BpXomV1x" opacity="1" fill-opacity="0" stroke="#0b1334" stroke-width="4" stroke-opacity="1"></use></g></g><g><g><use xlink:href="#dJl7RQ89l" opacity="1" fill-opacity="0" stroke="#0b1334" stroke-width="4" stroke-opacity="1"></use></g></g><g><g><use xlink:href="#e7hdYgkyDO" opacity="1" fill-opacity="0" stroke="#0b1334" stroke-width="4" stroke-opacity="1"></use></g></g><g><g><use xlink:href="#c2V3ohRzTX" opacity="1" fill-opacity="0" stroke="#0b1334" stroke-width="4" stroke-opacity="1"></use></g></g><g><g><use xlink:href="#a1nouVWXzY" opacity="1" fill-opacity="0" stroke="#0b1334" stroke-width="4" stroke-opacity="1"></use></g></g><g><g><use xlink:href="#ba844Cqsf" opacity="1" fill-opacity="0" stroke="#0b1334" stroke-width="4" stroke-opacity="1"></use></g></g><g><g><use xlink:href="#e7yZcvm3K" opacity="1" fill-opacity="0" stroke="#0b1334" stroke-width="4" stroke-opacity="1"></use></g></g><g><use xlink:href="#a2LmTYNswB" opacity="1" fill="#14344b" fill-opacity="1"></use><g><use xlink:href="#a2LmTYNswB" opacity="1" fill-opacity="0" stroke="#0b1334" stroke-width="4" stroke-opacity="1"></use></g></g><g><use xlink:href="#f1v8lwNhHG" opacity="1" fill="#020f26" fill-opacity="1"></use><g><use xlink:href="#f1v8lwNhHG" opacity="1" fill-opacity="0" stroke="#0b1334" stroke-width="1" stroke-opacity="1"></use></g></g><g><use xlink:href="#a8bhVz7CD" opacity="1" fill="#020f26" fill-opacity="1"></use></g><g><g><use xlink:href="#f3R8cA7jlW" opacity="1" fill-opacity="0" stroke="#020202" stroke-width="2" stroke-opacity="1"></use></g></g><g><g><use xlink:href="#c1hm2O8sri" opacity="1" fill-opacity="0" stroke="#020f26" stroke-width="3" stroke-opacity="1"></use></g></g><g><use xlink:href="#b11DFAWXb8" opacity="1" fill="#000000" fill-opacity="1"></use></g><g><use xlink:href="#b4gmkITL82" opacity="1" fill="#020f26" fill-opacity="1"></use><g><use xlink:href="#b4gmkITL82" opacity="1" fill-opacity="0" stroke="#0b1334" stroke-width="2" stroke-opacity="1"></use></g></g><g><use xlink:href="#b1c8UOBsb8" opacity="1" fill="#020f26" fill-opacity="1"></use><g><use xlink:href="#b1c8UOBsb8" opacity="1" fill-opacity="0" stroke="#0b1334" stroke-width="1" stroke-opacity="1"></use></g></g><g><g><use xlink:href="#a2YPKOxywq" opacity="1" fill-opacity="0" stroke="#020f26" stroke-width="3" stroke-opacity="1"></use></g></g><g><use xlink:href="#a16GxYMMis" opacity="1" fill="#020f26" fill-opacity="1"></use><g><use xlink:href="#a16GxYMMis" opacity="1" fill-opacity="0" stroke="#0b1334" stroke-width="1" stroke-opacity="1"></use></g></g><g><g><use xlink:href="#d2WUUWJMcH" opacity="1" fill-opacity="0" stroke="#020202" stroke-width="2" stroke-opacity="1"></use></g></g><g><g><use xlink:href="#a4k2q4sSn" opacity="1" fill-opacity="0" stroke="#000000" stroke-width="2" stroke-opacity="1"></use></g></g><g><g><use xlink:href="#aKVuCWzm4" opacity="1" fill-opacity="0" stroke="#000000" stroke-width="2" stroke-opacity="1"></use></g></g><g><g><use xlink:href="#a1QrQwAaWN" opacity="1" fill-opacity="0" stroke="#020f26" stroke-width="3" stroke-opacity="1"></use></g></g><g><use xlink:href="#b17944451O" opacity="1" fill="#020f26" fill-opacity="1"></use><g><use xlink:href="#b17944451O" opacity="1" fill-opacity="0" stroke="#0b1334" stroke-width="1" stroke-opacity="1"></use></g></g><g><use xlink:href="#a5qIrDOsS" opacity="1" fill="#020f26" fill-opacity="1"></use><g><use xlink:href="#a5qIrDOsS" opacity="1" fill-opacity="0" stroke="#0b1334" stroke-width="1" stroke-opacity="1"></use></g></g><g><g><use xlink:href="#aD3kXrfIc" opacity="1" fill-opacity="0" stroke="#000000" stroke-width="2" stroke-opacity="1"></use></g></g><g><use xlink:href="#aU2Pk3gT" opacity="1" fill="#020f26" fill-opacity="1"></use><g><use xlink:href="#aU2Pk3gT" opacity="1" fill-opacity="0" stroke="#3fc1c3" stroke-width="2" stroke-opacity="1"></use></g></g><g><use xlink:href="#bCRzhdiPV" opacity="1" fill="#1c499b" fill-opacity="1"></use></g></g></g></svg>