<?xml version="1.0" encoding="UTF-8" standalone="no"?>
<!DOCTYPE svg PUBLIC "-//W3C//DTD SVG 1.1//EN" "http://www.w3.org/Graphics/SVG/1.1/DTD/svg11.dtd">
<svg version="1.1" xmlns="http://www.w3.org/2000/svg" xmlns:xlink="http://www.w3.org/1999/xlink" preserveAspectRatio="xMidYMid meet" viewBox="0 0 1200 260" width="1200" height="260"><defs><path d="M0 25.21L1200 25.21L1200 248.41L0 248.41L0 25.21Z" id="a6SllpJscx"></path><path d="M1158.35 43.98C1171.57 43.98 1182.29 54.7 1182.29 67.93C1182.29 100.27 1182.29 173.35 1182.29 205.69C1182.29 218.92 1171.57 229.64 1158.35 229.64C929.8 229.64 268.12 229.64 39.58 229.64C26.35 229.64 15.63 218.92 15.63 205.69C15.63 173.35 15.63 100.27 15.63 67.93C15.63 54.7 26.35 43.98 39.58 43.98C268.12 43.98 929.8 43.98 1158.35 43.98Z" id="a6tOl4ull8"></path></defs><g><g><g><use xlink:href="#a6SllpJscx" opacity="1" fill="#020f26" fill-opacity="1"></use><g><use xlink:href="#a6SllpJscx" opacity="1" fill-opacity="0" stroke="#3fc1c3" stroke-width="2" stroke-opacity="1"></use></g></g><g><use xlink:href="#a6tOl4ull8" opacity="1" fill="#1c499b" fill-opacity="1"></use><g><use xlink:href="#a6tOl4ull8" opacity="1" fill-opacity="0" stroke="#3fc1c3" stroke-width="2" stroke-opacity="1"></use></g></g></g></g></svg>