<svg version="1.1" xmlns="http://www.w3.org/2000/svg" xmlns:xlink="http://www.w3.org/1999/xlink"
    preserveAspectRatio="xMidYMid meet" viewBox="0 0 640 640" width="640" height="640">
    <defs>
        <path
            d="M35.87 114.23C32.24 118.02 30.22 123.07 30.22 128.31C30.22 167.23 30.22 272.62 30.22 310.74C30.22 318.56 33.06 326.11 38.21 331.99C45.25 340.02 58.92 355.6 66.1 363.78C70.75 369.08 77.46 372.12 84.51 372.12C97.13 372.12 126.41 372.12 139.66 372.12C144.74 372.12 149.6 370.01 153.08 366.3C155.01 364.23 159.84 359.07 167.57 350.81L233.07 350.81C242.66 359.02 248.65 364.16 251.04 366.21C257.22 371.5 265.09 374.42 273.22 374.43C332 374.53 498.12 374.81 557.5 374.91C563.83 374.92 570.07 373.48 575.76 370.7C577.1 370.04 574.11 371.51 575.85 370.65C579.96 368.64 582.68 364.61 583.02 360.06C583.23 357.2 583.55 352.76 583.82 349.1C583.82 349.1 584.07 342.45 584.07 342.45C584.07 330.51 584.07 304.24 584.07 293.85C584.07 286.65 581.84 279.62 577.7 273.73C575 269.89 568.26 260.31 557.48 244.98L557.48 165.95C567.39 159.98 573.58 156.24 576.06 154.75C581.03 151.75 584.07 146.37 584.07 140.57C584.07 123.95 584.07 83.78 584.07 67.24C584.07 61.02 581.41 55.09 576.78 50.94C574.07 48.52 574.04 48.49 571.53 46.25C566.18 41.46 559.25 38.82 552.07 38.82C491.05 38.82 338.52 38.82 94.46 38.82C78.75 38.82 68.94 38.82 65.01 38.82C59.58 38.82 55.17 43.18 55.1 48.61C55 57.82 54.82 74.16 54.72 82.99C54.63 90.49 51.7 97.68 46.51 103.11C43.25 106.51 39.61 110.32 35.87 114.23Z"
            id="d1X85mR6rS" vector-effect="non-scaling-stroke"></path>
        <path d="M157.29 371.16L173.29 355.16" id="cQGm9CrYD" vector-effect="non-scaling-stroke"></path>
        <path
            d="M531.84 55.29C540.89 55.29 548.22 62.63 548.22 71.68C548.22 125.7 548.22 271.27 548.22 325.27C548.22 334.39 540.83 341.78 531.71 341.78C438.58 341.78 175.6 341.78 82.44 341.78C73.39 341.78 66.06 334.45 66.06 325.4C66.06 271.38 66.06 125.59 66.06 71.55C66.06 62.57 73.34 55.29 82.31 55.29C175.49 55.29 438.68 55.29 531.84 55.29Z"
            id="aWjZimFyG" vector-effect="non-scaling-stroke"></path>
        <path d="M167.51 371.16L183.51 355.16" id="b9d79P8m" vector-effect="non-scaling-stroke"></path>
        <path d="M178.16 371.16L194.16 355.16" id="f3va9d5akA" vector-effect="non-scaling-stroke"></path>
        <path d="M189.29 371.16L205.29 355.16" id="a46S1skZB5" vector-effect="non-scaling-stroke"></path>
        <path d="M199.68 371.16L215.68 355.16" id="a8SM9NYGl" vector-effect="non-scaling-stroke"></path>
        <path d="M210.99 371.16L226.99 355.16" id="birB1UL4O" vector-effect="non-scaling-stroke"></path>
        <path d="M222.68 371.16L236.68 357.16" id="b23RO240vK" vector-effect="non-scaling-stroke"></path>
        <path d="M563.22 172.97L582.48 161.09" id="fPeLL5hm0" vector-effect="non-scaling-stroke"></path>
        <path d="M563.22 184.85L582.48 172.97" id="cyMvaDalF" vector-effect="non-scaling-stroke"></path>
        <path d="M563.22 194.73L582.48 182.86" id="b68sIdS" vector-effect="non-scaling-stroke"></path>
        <path d="M563.22 206.61L582.48 194.73" id="b1XjbJSEHv" vector-effect="non-scaling-stroke"></path>
        <path d="M563.22 218.49L582.48 206.61" id="b9JT7rSdKv" vector-effect="non-scaling-stroke"></path>
        <path d="M563.22 230.37L582.48 218.49" id="g1CMEBuME" vector-effect="non-scaling-stroke"></path>
        <path d="M563.22 239.31L582.48 227.43" id="adeavM4qL" vector-effect="non-scaling-stroke"></path>
        <path d="M564.81 248.19L583.6 238.26" id="amebTgpWm" vector-effect="non-scaling-stroke"></path>
        <path
            d="M44.22 92.53C44.22 96.39 41.08 99.53 37.22 99.53C33.35 99.53 30.22 96.39 30.22 92.53C30.22 88.67 33.35 85.53 37.22 85.53C41.08 85.53 44.22 88.67 44.22 92.53Z"
            id="b3hHLSGMfY" vector-effect="non-scaling-stroke"></path>
        <path
            d="M222.68 27.07C222.68 30.93 219.55 34.07 215.68 34.07C211.82 34.07 208.68 30.93 208.68 27.07C208.68 23.21 211.82 20.07 215.68 20.07C219.55 20.07 222.68 23.21 222.68 27.07Z"
            id="b4rNXvENp6" vector-effect="non-scaling-stroke"></path>
        <path d="" id="c344MT1evn" vector-effect="non-scaling-stroke"></path>
        <path
            d="M210.99 28.63L71.6 28.63C62.22 28.63 56.35 28.63 54.01 28.63C46.01 28.63 39.52 35.12 39.52 43.12C39.52 47.39 39.52 58.06 39.52 75.14L36.52 98.63C29.6 106.48 25.28 111.39 23.55 113.35C20.36 116.97 18.6 121.63 18.6 126.46C18.6 167.36 18.6 279.77 18.6 319.97C18.6 327.06 21.18 333.91 25.86 339.24C29.77 343.7 39.56 354.86 55.22 372.72"
            id="g2XV8GRGnD" vector-effect="non-scaling-stroke"></path>
        <path d="" id="a2QqdvZ3d4" vector-effect="non-scaling-stroke"></path>
        <path
            d="M63.22 371.16C63.22 375.02 60.08 378.16 56.22 378.16C52.35 378.16 49.22 375.02 49.22 371.16C49.22 367.3 52.35 364.16 56.22 364.16C60.08 364.16 63.22 367.3 63.22 371.16Z"
            id="aos1CplP6" vector-effect="non-scaling-stroke"></path>
        <path
            d="M506.32 27.07C506.32 30.93 503.18 34.07 499.32 34.07C495.46 34.07 492.32 30.93 492.32 27.07C492.32 23.21 495.46 20.07 499.32 20.07C503.18 20.07 506.32 23.21 506.32 27.07Z"
            id="b9EsK3tc5" vector-effect="non-scaling-stroke"></path>
        <path
            d="M596.05 198.54L596.54 70.16C596.54 70.16 596.54 70.16 596.54 70.16C596.6 46.39 577.33 27.1 553.56 27.13C550.22 27.14 541.87 27.15 528.51 27.17L499.62 27.21"
            id="a4aSnxxF7" vector-effect="non-scaling-stroke"></path>
        <path
            d="M603.6 199.61C603.6 203.48 600.46 206.61 596.6 206.61C592.73 206.61 589.6 203.48 589.6 199.61C589.6 195.75 592.73 192.61 596.6 192.61C600.46 192.61 603.6 195.75 603.6 199.61Z"
            id="aayH9o6Ng" vector-effect="non-scaling-stroke"></path>
        <path d="" id="b4jvAwSDzX" vector-effect="non-scaling-stroke"></path>
        <path d="" id="jvLYDRfCu" vector-effect="non-scaling-stroke"></path>
        <path d="" id="a1YKDzX7Q" vector-effect="non-scaling-stroke"></path>
        <path
            d="M418.82 385.41L562.03 385.41C570.74 384.72 576.19 384.29 578.37 384.12C586.86 383.45 593.4 376.34 593.35 367.82C593.14 326.97 593.29 299.74 593.82 286.12"
            id="a5WFwiICj" vector-effect="non-scaling-stroke"></path>
        <path
            d="M600.82 289.12C600.82 292.99 597.68 296.12 593.82 296.12C589.96 296.12 586.82 292.99 586.82 289.12C586.82 285.26 589.96 282.12 593.82 282.12C597.68 282.12 600.82 285.26 600.82 289.12Z"
            id="b1Kiuyg4GE" vector-effect="non-scaling-stroke"></path>
        <path
            d="M425.82 385.16C425.82 389.02 422.68 392.16 418.82 392.16C414.96 392.16 411.82 389.02 411.82 385.16C411.82 381.3 414.96 378.16 418.82 378.16C422.68 378.16 425.82 381.3 425.82 385.16Z"
            id="b5l5wuAhw" vector-effect="non-scaling-stroke"></path>
        <path d="" id="c9GM5dPGo" vector-effect="non-scaling-stroke"></path>
    </defs>
    <g>
        <g>
            <g>
                <g>
                    <use xlink:href="#d1X85mR6rS" opacity="1" fill-opacity="0" stroke="#000000" stroke-width="2"
                        stroke-opacity="1"></use>
                </g>
            </g>
            <g>
                <g>
                    <use xlink:href="#cQGm9CrYD" opacity="1" fill-opacity="0" stroke="#000000" stroke-width="4"
                        stroke-opacity="1"></use>
                </g>
            </g>
            <g>
                <use xlink:href="#aWjZimFyG" opacity="1" fill="#659dda" fill-opacity="0.17"></use>
                <g>
                    <use xlink:href="#aWjZimFyG" opacity="1" fill-opacity="0" stroke="#020202" stroke-width="2"
                        stroke-opacity="1"></use>
                </g>
            </g>
            <g>
                <g>
                    <use xlink:href="#b9d79P8m" opacity="1" fill-opacity="0" stroke="#000000" stroke-width="4"
                        stroke-opacity="1"></use>
                </g>
            </g>
            <g>
                <g>
                    <use xlink:href="#f3va9d5akA" opacity="1" fill-opacity="0" stroke="#000000" stroke-width="4"
                        stroke-opacity="1"></use>
                </g>
            </g>
            <g>
                <g>
                    <use xlink:href="#a46S1skZB5" opacity="1" fill-opacity="0" stroke="#000000" stroke-width="4"
                        stroke-opacity="1"></use>
                </g>
            </g>
            <g>
                <g>
                    <use xlink:href="#a8SM9NYGl" opacity="1" fill-opacity="0" stroke="#000000" stroke-width="4"
                        stroke-opacity="1"></use>
                </g>
            </g>
            <g>
                <g>
                    <use xlink:href="#birB1UL4O" opacity="1" fill-opacity="0" stroke="#000000" stroke-width="4"
                        stroke-opacity="1"></use>
                </g>
            </g>
            <g>
                <g>
                    <use xlink:href="#b23RO240vK" opacity="1" fill-opacity="0" stroke="#000000" stroke-width="4"
                        stroke-opacity="1"></use>
                </g>
            </g>
            <g>
                <g>
                    <use xlink:href="#fPeLL5hm0" opacity="1" fill-opacity="0" stroke="#000000" stroke-width="4"
                        stroke-opacity="1"></use>
                </g>
            </g>
            <g>
                <g>
                    <use xlink:href="#cyMvaDalF" opacity="1" fill-opacity="0" stroke="#000000" stroke-width="4"
                        stroke-opacity="1"></use>
                </g>
            </g>
            <g>
                <g>
                    <use xlink:href="#b68sIdS" opacity="1" fill-opacity="0" stroke="#000000" stroke-width="4"
                        stroke-opacity="1"></use>
                </g>
            </g>
            <g>
                <g>
                    <use xlink:href="#b1XjbJSEHv" opacity="1" fill-opacity="0" stroke="#000000" stroke-width="4"
                        stroke-opacity="1"></use>
                </g>
            </g>
            <g>
                <g>
                    <use xlink:href="#b9JT7rSdKv" opacity="1" fill-opacity="0" stroke="#000000" stroke-width="4"
                        stroke-opacity="1"></use>
                </g>
            </g>
            <g>
                <g>
                    <use xlink:href="#g1CMEBuME" opacity="1" fill-opacity="0" stroke="#000000" stroke-width="4"
                        stroke-opacity="1"></use>
                </g>
            </g>
            <g>
                <g>
                    <use xlink:href="#adeavM4qL" opacity="1" fill-opacity="0" stroke="#000000" stroke-width="4"
                        stroke-opacity="1"></use>
                </g>
            </g>
            <g>
                <g>
                    <use xlink:href="#amebTgpWm" opacity="1" fill-opacity="0" stroke="#000000" stroke-width="4"
                        stroke-opacity="1"></use>
                </g>
            </g>
            <g>
                <use xlink:href="#b3hHLSGMfY" opacity="1" fill="#000000" fill-opacity="1"></use>
            </g>
            <g>
                <use xlink:href="#b4rNXvENp6" opacity="1" fill="#000000" fill-opacity="1"></use>
            </g>
            <g>
                <g>
                    <use xlink:href="#c344MT1evn" opacity="1" fill-opacity="0" stroke="#020202" stroke-width="2"
                        stroke-opacity="1"></use>
                </g>
            </g>
            <g>
                <g>
                    <use xlink:href="#g2XV8GRGnD" opacity="1" fill-opacity="0" stroke="#020202" stroke-width="2"
                        stroke-opacity="1"></use>
                </g>
            </g>
            <g>
                <use xlink:href="#a2QqdvZ3d4" opacity="1" fill="#000000" fill-opacity="1"></use>
            </g>
            <g>
                <use xlink:href="#aos1CplP6" opacity="1" fill="#000000" fill-opacity="1"></use>
            </g>
            <g>
                <use xlink:href="#b9EsK3tc5" opacity="1" fill="#000000" fill-opacity="1"></use>
            </g>
            <g>
                <g>
                    <use xlink:href="#a4aSnxxF7" opacity="1" fill-opacity="0" stroke="#020202" stroke-width="2"
                        stroke-opacity="1"></use>
                </g>
            </g>
            <g>
                <use xlink:href="#aayH9o6Ng" opacity="1" fill="#000000" fill-opacity="1"></use>
            </g>
            <g>
                <g>
                    <use xlink:href="#b4jvAwSDzX" opacity="1" fill-opacity="0" stroke="#020202" stroke-width="2"
                        stroke-opacity="1"></use>
                </g>
            </g>
            <g>
                <g>
                    <use xlink:href="#jvLYDRfCu" opacity="1" fill-opacity="0" stroke="#000000" stroke-width="2"
                        stroke-opacity="1"></use>
                </g>
            </g>
            <g>
                <g>
                    <use xlink:href="#a1YKDzX7Q" opacity="1" fill-opacity="0" stroke="#000000" stroke-width="2"
                        stroke-opacity="1"></use>
                </g>
            </g>
            <g>
                <g>
                    <use xlink:href="#a5WFwiICj" opacity="1" fill-opacity="0" stroke="#020202" stroke-width="2"
                        stroke-opacity="1"></use>
                </g>
            </g>
            <g>
                <use xlink:href="#b1Kiuyg4GE" opacity="1" fill="#000000" fill-opacity="1"></use>
            </g>
            <g>
                <use xlink:href="#b5l5wuAhw" opacity="1" fill="#000000" fill-opacity="1"></use>
            </g>
            <g>
                <g>
                    <use xlink:href="#c9GM5dPGo" opacity="1" fill-opacity="0" stroke="#000000" stroke-width="2"
                        stroke-opacity="1"></use>
                </g>
            </g>
        </g>
    </g>
</svg>