<svg version="1.1" xmlns="http://www.w3.org/2000/svg" xmlns:xlink="http://www.w3.org/1999/xlink" preserveAspectRatio="xMidYMid meet" viewBox="0 0 1200 640" width="1200" height="640">
<defs><path d="M32.48 316.56C32.48 316.56 32.51 322.07 32.51 322.07C32.65 359.74 33 449.33 33.12 481.84C33.18 497.59 46.09 510.26 61.84 510.03C64.78 509.99 63.12 510.01 70.59 509.9C70.59 509.9 82.43 509.83 82.43 509.83C107.92 509.92 181.08 510.16 207.22 510.24C208.94 510.25 210.58 509.56 211.78 508.33C213.32 506.75 217.15 502.82 223.29 496.53L341.77 496.53C346.19 503.2 348.96 507.37 350.07 509.04C351.53 511.25 354.01 512.58 356.66 512.57C372.1 512.55 410.71 512.5 472.49 512.42C678.29 510.83 806.91 509.84 858.36 509.44C862.86 509.4 867.22 507.92 870.81 505.22C871.59 504.63 870.68 505.31 872.04 504.29C873.79 502.96 875.11 501.14 875.81 499.05C876.25 497.73 875.65 499.51 875.88 498.83C877.29 494.6 878 490.17 877.98 485.71C877.96 478.06 877.88 457.63 877.85 448.93C877.84 448.01 877.34 447.17 876.54 446.73C874.01 445.36 867.71 441.92 857.62 436.43L857.29 350.08C864.25 346.28 868.59 343.91 870.33 342.96C874.78 340.53 877.53 335.86 877.51 330.79C877.46 315.82 877.3 274.23 877.24 258.03C877.24 256.67 876.83 255.35 876.07 254.23C874.97 252.6 874.56 252 873.9 251.01C871.81 247.92 868.33 246.07 864.61 246.07C764.31 245.92 513.57 245.54 112.39 244.93C86.53 244.89 70.37 244.87 63.9 244.86C54.55 244.85 45.64 248.85 39.44 255.86C38.01 257.47 40.7 254.43 38.58 256.82C34.52 261.41 32.29 267.33 32.32 273.45C32.35 282.62 32.44 306.03 32.48 316.56Z" id="b4dDtsah8c"></path><path d="M832.43 263.86C839.51 263.88 845.23 269.64 845.18 276.72C844.87 319.06 844.05 433.15 843.75 475.46C843.7 482.62 837.87 488.4 830.72 488.38C675.15 488.15 221.31 487.46 65.72 487.22C58.65 487.21 52.93 481.44 52.98 474.36C53.28 432.03 54.1 317.77 54.41 275.42C54.46 268.37 60.19 262.69 67.24 262.7C222.84 262.94 676.85 263.63 832.43 263.86Z" id="a26VZ7kivI"></path><path d="M861.82 435.85L877.99 424.44" id="a4rCh1vduU"></path><path d="M861.01 359.73L877.18 348.31" id="aDGZQFFs4"></path><path d="M861.01 371.14L877.18 359.73" id="a1pIFKeIFA"></path><path d="M861.01 381.25L877.18 369.84" id="b4bkcuM47f"></path><path d="M861.01 391.9L877.18 380.48" id="d2QO4vQChF"></path><path d="M861.05 403.31L877.21 391.9" id="k8z6vique"></path><path d="M861.01 414.36L876.02 403.31" id="a3ifc1hvjo"></path><path d="" id="e2iCAIxOUt"></path><path d="" id="c2YESsk3w"></path><path d="M861.23 424.44L877.39 413.02" id="aF6xpsVMX"></path><path d="M890.26 461.26C886.4 461.27 883.25 458.14 883.25 454.28C883.24 450.41 886.37 447.27 890.23 447.26C894.1 447.26 897.24 450.39 897.25 454.25C897.25 458.11 894.12 461.26 890.26 461.26Z" id="b3TsDV8sgb"></path><path d="M427.51 530.83C423.65 530.83 420.5 527.7 420.5 523.84C420.49 519.98 423.62 516.83 427.48 516.83C431.35 516.82 434.49 519.95 434.5 523.81C434.5 527.68 431.37 530.82 427.51 530.83Z" id="b1rpbbXfM"></path><path d="M19.07 412.05C15.21 412.06 12.07 408.93 12.06 405.07C12.05 401.2 15.18 398.06 19.05 398.05C22.91 398.05 26.05 401.18 26.06 405.04C26.07 408.91 22.94 412.05 19.07 412.05Z" id="axIkLeQH5"></path><path d="" id="a3OwWCCiQh"></path><path d="M187.99 232.59L61.55 232.65C61.55 232.65 61.55 232.65 61.55 232.65C38.14 232.69 19.22 251.74 19.34 275.15C19.36 279.86 19.42 291.62 19.51 310.44L19.12 405.05" id="g2pRExzr1g"></path><path d="M190.58 239.59C186.71 239.6 183.57 236.47 183.56 232.61C183.56 228.74 186.69 225.6 190.55 225.59C194.41 225.59 197.56 228.72 197.56 232.58C197.57 236.44 194.44 239.59 190.58 239.59Z" id="b1jzxzEW86"></path><path d="M265.72 515L255.75 501.05" id="aqKKgmHV6"></path><path d="M276.06 515.28L266.09 501.34" id="a2fe72ccI0"></path><path d="M284.67 515.52L274.7 501.57" id="bDPihjwHp"></path><path d="M295.02 515.8L285.05 501.85" id="e2w3TXqz9d"></path><path d="M305.36 516.08L295.39 502.14" id="a8RdfuySx"></path><path d="M313.52 515.8L303.55 501.85" id="b1o1xT7dOF"></path><path d="M323.49 516.58L313.52 502.63" id="cSdM6Lc2"></path><path d="M333.44 515.57L323.77 502.6" id="fmyw2TASN"></path><path d="M343.67 516.83L333.7 502.88" id="c1YcORjq6E"></path><path d="M235.43 514.72L225.46 500.77" id="f3pELnwgBx"></path><path d="M245.41 514.72L235.43 500.77" id="b1lE2ln9Ik"></path><path d="M255.75 515L245.78 501.05" id="b2aB0oUL6r"></path><path d="" id="dcX7RtY0H"></path><path d="M427.78 523.64L807.9 522.53C838.48 521.82 857.58 521.37 865.23 521.19C879.51 520.86 890.76 508.89 890.21 494.61C889.43 474.44 889.44 460.99 890.25 454.26" id="e22ONXp90o"></path></defs><g><g><g><use xlink:href="#b4dDtsah8c" opacity="1" fill="#020f26" fill-opacity="1"></use><g><use xlink:href="#b4dDtsah8c" opacity="1" fill-opacity="0" stroke="#3fc1c3" stroke-width="2" stroke-opacity="1"></use></g></g><g><use xlink:href="#a26VZ7kivI" opacity="1" fill="#1c499b" fill-opacity="1"></use><g><use xlink:href="#a26VZ7kivI" opacity="1" fill-opacity="0" stroke="#3fc1c3" stroke-width="2" stroke-opacity="1"></use></g></g><g><g><use xlink:href="#a4rCh1vduU" opacity="1" fill-opacity="0" stroke="#0b1334" stroke-width="4" stroke-opacity="1"></use></g></g><g><g><use xlink:href="#aDGZQFFs4" opacity="1" fill-opacity="0" stroke="#0b1334" stroke-width="4" stroke-opacity="1"></use></g></g><g><g><use xlink:href="#a1pIFKeIFA" opacity="1" fill-opacity="0" stroke="#0b1334" stroke-width="4" stroke-opacity="1"></use></g></g><g><g><use xlink:href="#b4bkcuM47f" opacity="1" fill-opacity="0" stroke="#0b1334" stroke-width="4" stroke-opacity="1"></use></g></g><g><g><use xlink:href="#d2QO4vQChF" opacity="1" fill-opacity="0" stroke="#0b1334" stroke-width="4" stroke-opacity="1"></use></g></g><g><g><use xlink:href="#k8z6vique" opacity="1" fill-opacity="0" stroke="#0b1334" stroke-width="4" stroke-opacity="1"></use></g></g><g><use xlink:href="#a3ifc1hvjo" opacity="1" fill="#14344b" fill-opacity="1"></use><g><use xlink:href="#a3ifc1hvjo" opacity="1" fill-opacity="0" stroke="#0b1334" stroke-width="4" stroke-opacity="1"></use></g></g><g><g><use xlink:href="#e2iCAIxOUt" opacity="1" fill-opacity="0" stroke="#0b1334" stroke-width="3" stroke-opacity="1"></use></g></g><g><g><use xlink:href="#c2YESsk3w" opacity="1" fill-opacity="0" stroke="#000000" stroke-width="2" stroke-opacity="1"></use></g></g><g><g><use xlink:href="#aF6xpsVMX" opacity="1" fill-opacity="0" stroke="#0b1334" stroke-width="4" stroke-opacity="1"></use></g></g><g><use xlink:href="#b3TsDV8sgb" opacity="1" fill="#0b1334" fill-opacity="1"></use></g><g><use xlink:href="#b1rpbbXfM" opacity="1" fill="#0b1334" fill-opacity="1"></use></g><g><use xlink:href="#axIkLeQH5" opacity="1" fill="#0b1334" fill-opacity="1"></use></g><g><g><use xlink:href="#a3OwWCCiQh" opacity="1" fill-opacity="0" stroke="#000000" stroke-width="1" stroke-opacity="1"></use></g></g><g><g><use xlink:href="#g2pRExzr1g" opacity="1" fill-opacity="0" stroke="#020f26" stroke-width="3" stroke-opacity="1"></use></g></g><g><use xlink:href="#b1jzxzEW86" opacity="1" fill="#0b1334" fill-opacity="1"></use></g><g><g><use xlink:href="#aqKKgmHV6" opacity="1" fill-opacity="0" stroke="#0b1334" stroke-width="4" stroke-opacity="1"></use></g></g><g><g><use xlink:href="#a2fe72ccI0" opacity="1" fill-opacity="0" stroke="#0b1334" stroke-width="4" stroke-opacity="1"></use></g></g><g><g><use xlink:href="#bDPihjwHp" opacity="1" fill-opacity="0" stroke="#0b1334" stroke-width="4" stroke-opacity="1"></use></g></g><g><g><use xlink:href="#e2w3TXqz9d" opacity="1" fill-opacity="0" stroke="#0b1334" stroke-width="4" stroke-opacity="1"></use></g></g><g><g><use xlink:href="#a8RdfuySx" opacity="1" fill-opacity="0" stroke="#0b1334" stroke-width="4" stroke-opacity="1"></use></g></g><g><g><use xlink:href="#b1o1xT7dOF" opacity="1" fill-opacity="0" stroke="#0b1334" stroke-width="4" stroke-opacity="1"></use></g></g><g><g><use xlink:href="#cSdM6Lc2" opacity="1" fill-opacity="0" stroke="#0b1334" stroke-width="4" stroke-opacity="1"></use></g></g><g><use xlink:href="#fmyw2TASN" opacity="1" fill="#14344b" fill-opacity="1"></use><g><use xlink:href="#fmyw2TASN" opacity="1" fill-opacity="0" stroke="#0b1334" stroke-width="4" stroke-opacity="1"></use></g></g><g><g><use xlink:href="#c1YcORjq6E" opacity="1" fill-opacity="0" stroke="#0b1334" stroke-width="4" stroke-opacity="1"></use></g></g><g><g><use xlink:href="#f3pELnwgBx" opacity="1" fill-opacity="0" stroke="#0b1334" stroke-width="4" stroke-opacity="1"></use></g></g><g><g><use xlink:href="#b1lE2ln9Ik" opacity="1" fill-opacity="0" stroke="#0b1334" stroke-width="4" stroke-opacity="1"></use></g></g><g><g><use xlink:href="#b2aB0oUL6r" opacity="1" fill-opacity="0" stroke="#0b1334" stroke-width="4" stroke-opacity="1"></use></g></g><g><g><use xlink:href="#dcX7RtY0H" opacity="1" fill-opacity="0" stroke="#000000" stroke-width="1" stroke-opacity="1"></use></g></g><g><g><use xlink:href="#e22ONXp90o" opacity="1" fill-opacity="0" stroke="#020f26" stroke-width="3" stroke-opacity="1"></use></g></g></g></g></svg>