<?xml version="1.0" encoding="UTF-8" standalone="no"?>
<!DOCTYPE svg PUBLIC "-//W3C//DTD SVG 1.1//EN" "http://www.w3.org/Graphics/SVG/1.1/DTD/svg11.dtd">
<svg version="1.1" xmlns="http://www.w3.org/2000/svg" xmlns:xlink="http://www.w3.org/1999/xlink" preserveAspectRatio="xMidYMid meet" viewBox="0 0 540 1100" width="540" height="1100"><defs><path d="M205.75 1069.33C205.75 1069.33 212.48 1069.33 212.48 1069.33C258.53 1069.33 368.04 1069.33 407.77 1069.33C426.99 1069.33 442.48 1053.58 442.17 1034.36C442.14 1032.66 442.27 1040.36 442.15 1033.11C442.15 1033.11 442.07 1018.64 442.07 1018.64C442.21 993.3 442.61 921.36 442.75 895.23C442.76 893.09 442.15 890.99 440.98 889.19C439.61 887.09 436.19 881.84 430.72 873.45L431.09 767.54C437.24 759.76 441.08 754.89 442.62 752.95C444.7 750.31 445.84 747.04 445.84 743.68C445.84 728.3 445.84 689.84 445.83 628.32C444.2 419.57 443.17 289.11 442.76 236.93C442.75 234.99 442.02 233.14 440.72 231.71C439.83 230.74 437.6 228.3 434.04 224.41C427.8 222.68 423.9 221.6 422.34 221.16C422.15 221.11 421.95 221.08 421.75 221.08C410.81 221.08 379.5 221.08 368.86 221.08C367.73 221.08 366.67 221.64 366.04 222.59C364.38 225.09 360.21 231.34 353.56 241.34L248.02 241.33C243.78 234.93 241.13 230.93 240.07 229.33C236.6 224.1 230.74 220.95 224.47 220.95C206.17 220.95 155.33 220.94 135.54 220.94C133.87 220.94 132.23 221.36 130.77 222.17C128.8 223.26 128.43 223.46 127.29 224.09C123.36 226.26 120.91 230.39 120.89 234.88C120.55 335.41 119.7 586.72 118.33 988.82C118.25 1013.07 118.2 1028.23 118.18 1034.29C118.14 1045.59 123.51 1056.22 132.64 1062.89C134.4 1064.18 129.27 1060.43 132.06 1062.47C138.16 1066.93 145.51 1069.33 153.06 1069.33C164.27 1069.33 192.89 1069.33 205.75 1069.33Z" id="a1pEBY3YMB"></path><path d="M434.37 871.82L447.45 850.72" id="e63QQGic7"></path><path d="M136.72 268.24C136.75 259.21 144.12 251.93 153.15 252.01C207.17 252.5 352.75 253.82 406.75 254.31C415.88 254.39 423.23 261.84 423.2 270.97C422.67 425.82 421.14 873.97 420.61 1028.85C420.58 1037.88 413.21 1045.16 404.18 1045.08C350.16 1044.59 204.37 1043.26 150.33 1042.77C141.34 1042.69 134.1 1035.36 134.13 1026.37C134.66 871.47 136.19 423.12 136.72 268.24Z" id="bLp9l9Ewn"></path><path d="M434.43 858.36L447.5 837.27" id="i3cd0uFnFx"></path><path d="M434.48 844.34L447.56 823.24" id="ec2ykZuIJ"></path><path d="M433.73 829.68L446.8 808.58" id="h3G4fIh1pM"></path><path d="M434.59 815.99L447.67 794.9" id="g1J2zasv6"></path><path d="M434.65 801.11L447.73 780.01" id="b6dAWbz26c"></path><path d="M434.71 785.7L446.15 767.25" id="bqXTLKfTh"></path><path d="M259.72 239L247.95 220.91" id="c1JrBDJEG"></path><path d="M271.6 239.06L259.83 220.97" id="c3bAstVA9H"></path><path d="M281.49 239.11L269.72 221.02" id="b2pEjT2HHA"></path><path d="M293.37 239.17L281.6 221.08" id="fX4bNKh5"></path><path d="M305.25 239.23L293.48 221.14" id="b17PnfJj3W"></path><path d="M314.19 239.28L302.41 221.19" id="b92eicnNt"></path><path d="M326.07 239.34L314.29 221.25" id="l1pQRWEbkK"></path><path d="M337.46 237.71L326.07 220.91" id="a61lZoq19k"></path><path d="" id="fn6jKJQRJ"></path><path d="" id="b8Xh3oKh2"></path><path d="" id="bgie6btLJ"></path><path d="" id="b1gp4pGdN"></path><path d="" id="avNkxMiD3"></path><path d="M456.35 669.33L454.6 362.87L454.08 271.9" id="cBbIIidaD"></path><path d="" id="djwLeeHLE"></path><path d="M349.24 239.06L337.46 220.97" id="d2h1uIhujJ"></path><path d="M461.08 271.9C461.08 275.76 457.94 278.9 454.08 278.9C450.22 278.9 447.08 275.76 447.08 271.9C447.08 268.04 450.22 264.9 454.08 264.9C457.94 264.9 461.08 268.04 461.08 271.9Z" id="k8J4yZZaO"></path><path d="M463.35 671.66C463.35 675.52 460.22 678.66 456.35 678.66C452.49 678.66 449.35 675.52 449.35 671.66C449.35 667.8 452.49 664.66 456.35 664.66C460.22 664.66 463.35 667.8 463.35 671.66Z" id="auHIn2f4K"></path></defs><g><g><g><use xlink:href="#a1pEBY3YMB" opacity="1" fill="#020f26" fill-opacity="1"></use><g><use xlink:href="#a1pEBY3YMB" opacity="1" fill-opacity="0" stroke="#3fc1c3" stroke-width="2" stroke-opacity="1"></use></g></g><g><g><use xlink:href="#e63QQGic7" opacity="1" fill-opacity="0" stroke="#0b1334" stroke-width="4" stroke-opacity="1"></use></g></g><g><use xlink:href="#bLp9l9Ewn" opacity="1" fill="#1c499b" fill-opacity="1"></use><g><use xlink:href="#bLp9l9Ewn" opacity="1" fill-opacity="0" stroke="#3fc1c3" stroke-width="2" stroke-opacity="1"></use></g></g><g><g><use xlink:href="#i3cd0uFnFx" opacity="1" fill-opacity="0" stroke="#0b1334" stroke-width="4" stroke-opacity="1"></use></g></g><g><g><use xlink:href="#ec2ykZuIJ" opacity="1" fill-opacity="0" stroke="#0b1334" stroke-width="4" stroke-opacity="1"></use></g></g><g><g><use xlink:href="#h3G4fIh1pM" opacity="1" fill-opacity="0" stroke="#0b1334" stroke-width="4" stroke-opacity="1"></use></g></g><g><g><use xlink:href="#g1J2zasv6" opacity="1" fill-opacity="0" stroke="#0b1334" stroke-width="4" stroke-opacity="1"></use></g></g><g><g><use xlink:href="#b6dAWbz26c" opacity="1" fill-opacity="0" stroke="#0b1334" stroke-width="4" stroke-opacity="1"></use></g></g><g><g><use xlink:href="#bqXTLKfTh" opacity="1" fill-opacity="0" stroke="#0b1334" stroke-width="4" stroke-opacity="1"></use></g></g><g><g><use xlink:href="#c1JrBDJEG" opacity="1" fill-opacity="0" stroke="#0b1334" stroke-width="4" stroke-opacity="1"></use></g></g><g><g><use xlink:href="#c3bAstVA9H" opacity="1" fill-opacity="0" stroke="#0b1334" stroke-width="4" stroke-opacity="1"></use></g></g><g><g><use xlink:href="#b2pEjT2HHA" opacity="1" fill-opacity="0" stroke="#0b1334" stroke-width="4" stroke-opacity="1"></use></g></g><g><g><use xlink:href="#fX4bNKh5" opacity="1" fill-opacity="0" stroke="#0b1334" stroke-width="4" stroke-opacity="1"></use></g></g><g><g><use xlink:href="#b17PnfJj3W" opacity="1" fill-opacity="0" stroke="#0b1334" stroke-width="4" stroke-opacity="1"></use></g></g><g><g><use xlink:href="#b92eicnNt" opacity="1" fill-opacity="0" stroke="#0b1334" stroke-width="4" stroke-opacity="1"></use></g></g><g><g><use xlink:href="#l1pQRWEbkK" opacity="1" fill-opacity="0" stroke="#0b1334" stroke-width="4" stroke-opacity="1"></use></g></g><g><use xlink:href="#a61lZoq19k" opacity="1" fill="#14344b" fill-opacity="1"></use><g><use xlink:href="#a61lZoq19k" opacity="1" fill-opacity="0" stroke="#0b1334" stroke-width="4" stroke-opacity="1"></use></g></g><g><g><use xlink:href="#fn6jKJQRJ" opacity="1" fill-opacity="0" stroke="#020202" stroke-width="2" stroke-opacity="1"></use></g></g><g><use xlink:href="#b8Xh3oKh2" opacity="1" fill="#000000" fill-opacity="1"></use></g><g><g><use xlink:href="#bgie6btLJ" opacity="1" fill-opacity="0" stroke="#020202" stroke-width="2" stroke-opacity="1"></use></g></g><g><g><use xlink:href="#b1gp4pGdN" opacity="1" fill-opacity="0" stroke="#000000" stroke-width="2" stroke-opacity="1"></use></g></g><g><g><use xlink:href="#avNkxMiD3" opacity="1" fill-opacity="0" stroke="#000000" stroke-width="2" stroke-opacity="1"></use></g></g><g><g><use xlink:href="#cBbIIidaD" opacity="1" fill-opacity="0" stroke="#0b1334" stroke-width="3" stroke-opacity="1"></use></g></g><g><g><use xlink:href="#djwLeeHLE" opacity="1" fill-opacity="0" stroke="#000000" stroke-width="2" stroke-opacity="1"></use></g></g><g><g><use xlink:href="#d2h1uIhujJ" opacity="1" fill-opacity="0" stroke="#0b1334" stroke-width="4" stroke-opacity="1"></use></g></g><g><use xlink:href="#k8J4yZZaO" opacity="1" fill="#0b1334" fill-opacity="1"></use></g><g><use xlink:href="#auHIn2f4K" opacity="1" fill="#0b1334" fill-opacity="1"></use></g></g></g></svg>